<?xml version="1.0" encoding="utf-8"?>
<!-- Generator: Adobe Illustrator 26.0.3, SVG Export Plug-In . SVG Version: 6.00 Build 0)  -->
<svg version="1.1" id="Layer_1" xmlns="http://www.w3.org/2000/svg" xmlns:xlink="http://www.w3.org/1999/xlink" x="0px" y="0px"
	 viewBox="0 0 1920 1920" style="enable-background:new 0 0 1920 1920;" xml:space="preserve">
<style type="text/css">
	.st0{fill:#6E6E6E;}
	.st1{fill:#EF3B06;}
</style>
<g>
	<path class="st0" d="M359.9,1914.2c-25.3-11.9-47.7-26.8-53.7-56.7c-1.5-8.4-2.5-17.4-2.5-25.8c0-571.6,0-1143.6,0-1715.2
		c0-57.2,23.4-87,85.5-110.8c43.7,0,87,0,130.7,0c1.5,1.5,4,3,5,5c4,10.9,10.9,22.4,9.9,32.8c-1.5,13.4-14.4,18.9-28.3,18.4
		c-27.8,0-55.7,0-84,0c-46.2,0-62.1,15.9-62.1,63.1c0,402.1,0,803.7,0,1205.7c0,163.5,0,326.5,0,490c0,4.5,0,8.9,0,12.9
		c1,22.4,12.4,28.8,31.3,16.4c56.2-36.8,111.8-74.1,167.5-110.8c121.8-80.5,243-161,364.8-242c24.4-15.9,46.7-16.9,70.6-0.5
		c91.9,61.1,183.9,122.3,276.3,183.4c19.9,13.4,25.3,28.8,15.9,43.2c-10.4,15.9-27.3,17.4-47.2,4.5
		c-88.5-58.6-176.9-117.3-264.9-176.4c-10.9-7.5-18.4-7-29.3,0c-167.5,111.8-335,222.7-502.5,333.5c-15.9,10.4-32.8,19.4-49.2,29.3
		C382.3,1914.2,370.9,1914.2,359.9,1914.2z"/>
	<path class="st0" d="M1530.4,5.8c43.7,12.9,74.6,38.3,83.5,85c1.5,8.4,2,17.4,2,25.8c0,571.6,0,1143.1,0.5,1715.2
		c0,41.7-19.9,66.6-56.2,82.5c-11.4,0-22.4,0-33.8,0c-56.7-36.3-113.8-72.6-170-109.3c-14.4-9.4-16.9-27.3-7.5-40.8
		c8.4-11.9,24.9-14.9,39.8-5c42.2,27.3,84,55.2,125.7,83c6.5,4,12.4,8.4,18.9,11.9c11.4,6,22.4,1,24.4-11.9c1-6,0.5-12.4,0.5-18.4
		c0-565.1,0-1130.2,0-1695.8c0-49.2-15.4-64.6-64.6-64.6c-279.3,0-559.1,0-838.4-0.5c-5.5,0-11.9,2-16.4-0.5
		c-9.4-4.5-21.9-9.9-24.9-17.9s3.5-20.4,6.5-30.3c1-3,4.5-5.5,7-8C929,5.8,1229.7,5.8,1530.4,5.8z"/>
	<path class="st0" d="M1389.2,707c0,22.4-9.4,40.8-25.3,56.2c-44.2,42.7-88,86-132.2,128.7c-9.9,9.4-13.9,17.9-11.4,32.8
		c11.4,62.1,21.4,124.7,31.8,186.9c5,29.8-4.5,54.2-28.3,72.1c-24.4,18.4-51.7,20.9-79,6.5c-52.2-27.3-104.9-53.7-156.1-82.5
		c-19.9-11.4-35.8-12.4-56.2-0.5c-49.7,28.3-100.9,53.7-151.1,80.5c-26.3,13.9-53.2,17.4-79.5,0.5c-26.8-17.4-39.3-42.7-34.3-74.6
		c9.9-63.1,20.4-126.2,31.8-188.9c2.5-13.4-0.5-22.4-9.9-31.3c-44.7-43.2-89.5-86.5-133.7-130.2c-30.8-30.3-33.8-71.1-8.9-102.4
		c13.4-16.9,31.8-24.9,53.2-27.8c60.6-8.9,121.3-17.9,182.4-25.8c14.4-2,21.9-8.4,27.8-20.9c25.8-53.7,52.7-106.9,78.5-160.5
		c14.4-30.3,36.3-50.7,71.6-50.2c35.3,0,56.7,20.4,71.1,50.7c25.3,53.2,52.2,105.9,78,158.5c6.5,13.9,14.9,20.4,30.8,22.4
		c60.1,7.5,120.3,16.9,180.4,25.8C1362.9,638.4,1389.2,667.8,1389.2,707z M725.2,1116.1c-1,23.4,9.4,29.3,28.8,19.4
		c50.2-25.8,100.9-50.7,149.6-79c39.3-22.9,74.6-22.4,113.3,0.5c48.2,28.3,98.4,52.7,148.1,78c7,3.5,17.9,5,23.9,1.5
		c4.5-2.5,4-13.9,5.5-21.4c0.5-2.5-0.5-5-1-7.5c-9.9-58.1-18.9-116.3-30.3-174c-6.5-33.3,3-59.1,26.8-82
		c44.2-42.2,87.5-84.5,130.7-127.7c5.5-5.5,10.9-15.9,8.9-21.4c-2-6-12.4-11.4-20.4-12.4c-60.1-9.4-120.3-18.9-180.4-26.3
		c-32.8-4-55.2-19.4-69.1-48.7c-25.3-53.2-51.7-105.9-78.5-158.5c-4.5-8.9-13.9-15.9-20.9-23.9c-7.5,8-17.4,14.9-22.4,24.4
		c-27.3,53.2-53.2,106.4-79.5,160c-12.4,25.3-31.8,41.3-59.6,45.2c-62.1,9.4-124.3,17.4-185.9,27.3c-8.4,1.5-19.9,7-23.4,13.9
		c-2.5,4.5,5.5,16.4,10.9,22.4c43.7,43.2,87.5,86,131.7,129.2c19.4,18.9,29.3,41.3,25.3,68.6c-2.5,16.4-6,32.8-8.4,49.7
		C741.1,1021.6,733.2,1070.3,725.2,1116.1z"/>
	<path class="st1" d="M725.2,1116.1c8-45.7,16.4-94.4,24.4-143.1c3-16.4,6.5-32.8,8.4-49.7c4-27.3-6-49.7-25.3-68.6
		c-44.2-42.7-88.5-85.5-131.7-129.2c-6-6-13.4-17.9-10.9-22.4c3.5-7,14.4-12.4,23.4-13.9c61.6-9.9,123.8-17.9,185.9-27.3
		c27.8-4,47.2-19.9,59.6-45.2c26.3-53.7,52.2-106.9,79.5-160c5-9.4,14.9-16.4,22.4-24.4c7,8,16.4,14.4,20.9,23.9
		c26.8,52.7,52.7,105.4,78.5,158.5c14.4,29.3,36.8,44.7,69.1,48.7c60.1,7.5,120.3,16.9,180.4,26.3c7.5,1,17.9,6.5,20.4,12.4
		c2,5.5-3.5,16.4-8.9,21.4c-43.2,43.2-86.5,85.5-130.7,127.7c-23.9,22.9-33.3,48.7-26.8,82c11.4,57.7,20.4,115.8,30.3,174
		c0.5,2.5,1,5,1,7.5c-1.5,7.5-1,18.9-5.5,21.4c-6,3.5-16.9,2-23.9-1.5c-49.7-25.3-99.9-50.2-148.1-78
		c-38.8-22.9-74.1-23.4-113.3-0.5c-48.7,28.3-99.4,53.2-149.6,79C734.7,1145.4,724.2,1138.9,725.2,1116.1z"/>
</g>
</svg>
