<svg width="300" height="400" viewBox="0 0 300 400" fill="none" xmlns="http://www.w3.org/2000/svg">
<path d="M21.4346 0C15.7498 0 10.2978 2.21868 6.27804 6.16796C2.25828 10.1172 0 15.4736 0 21.0587V378.941C0 384.526 2.25828 389.883 6.27804 393.832C10.2978 397.781 15.7498 400 21.4346 400C26.8758 399.85 32.1282 398.008 36.4357 394.738L149.995 309.472L263.564 394.732C267.872 398.002 273.124 399.844 278.565 399.994C281.38 399.994 284.168 399.449 286.768 398.391C289.369 397.333 291.732 395.781 293.722 393.826C295.712 391.87 297.291 389.549 298.368 386.994C299.446 384.439 300 381.701 300 378.935V21.0587C300 18.2933 299.446 15.5549 298.368 12.9999C297.291 10.4449 295.712 8.12345 293.722 6.16796C291.732 4.21248 289.369 2.6613 286.768 1.603C284.168 0.544701 281.38 0 278.565 0H21.4346Z" fill="black"/>
</svg>
